<svg width="23" height="24" viewBox="0 0 23 24" fill="none" xmlns="http://www.w3.org/2000/svg">
<path d="M8.15725 22.2356V18.6682C8.15725 17.7576 8.90087 17.0194 9.81818 17.0194H13.1714C13.6119 17.0194 14.0344 17.1931 14.3458 17.5023C14.6573 17.8115 14.8323 18.2309 14.8323 18.6682V22.2356C14.8295 22.6142 14.9791 22.9782 15.2478 23.2469C15.5165 23.5156 15.8821 23.6667 16.2634 23.6667H18.5511C19.6196 23.6694 20.6452 23.25 21.4017 22.501C22.1582 21.7519 22.5833 20.7348 22.5833 19.6741V9.51135C22.5833 8.65455 22.2008 7.84183 21.5387 7.29212L13.7564 1.12186C12.4026 0.0399988 10.463 0.0749293 9.14963 1.20482L1.54485 7.29212C0.851536 7.82562 0.437149 8.64075 0.416672 9.51135V19.6638C0.416672 21.8745 2.22195 23.6667 4.44887 23.6667H6.68434C7.47644 23.6667 8.12017 23.0323 8.12591 22.2459L8.15725 22.2356Z" fill="#010E54"/>
</svg>
